PathFileType	4	(X/Y/Z)	c:/Users/goper/Files/vsCode/490R/osim_files/C04/C04_Static.trc
DataRate	CameraRate	NumFrames	NumMarkers	Units                	OrigDataRate	OrigDataStartFrame	OrigNumFrames
250.00	250.00	4	36	mm	250.0	362	1445
                Frame#	Time	LPSIS			LASIS			LTH1			LTH2			LTH3			LTH4			LLFE			LMFE			LSH1			LSH2			LSH3			LSH4			LLMAL			LMMAL			LCAL			LMTP5			LTOE			LMTP1			RPSIS			RASIS			RTH1			RTH2			RTH3			RTH4			RLFE			RMFE			RSH1			RSH2			RSH3			RSH4			RLMAL			RMMAL			RCAL			RMTP1			RTOE			RMTP5		
		X1	Y1	Z1	X2	Y2	Z2	X3	Y3	Z3	X4	Y4	Z4	X5	Y5	Z5	X6	Y6	Z6	X7	Y7	Z7	X8	Y8	Z8	X9	Y9	Z9	X10	Y10	Z10	X11	Y11	Z11	X12	Y12	Z12	X13	Y13	Z13	X14	Y14	Z14	X15	Y15	Z15	X16	Y16	Z16	X17	Y17	Z17	X18	Y18	Z18	X19	Y19	Z19	X20	Y20	Z20	X21	Y21	Z21	X22	Y22	Z22	X23	Y23	Z23	X24	Y24	Z24	X25	Y25	Z25	X26	Y26	Z26	X27	Y27	Z27	X28	Y28	Z28	X29	Y29	Z29	X30	Y30	Z30	X31	Y31	Z31	X32	Y32	Z32	X33	Y33	Z33	X34	Y34	Z34	X35	Y35	Z35	X36	Y36	Z36

362	1.44400	-350.53857	978.38531	415.63800	-185.19809	962.38660	339.70462	-321.72406	730.55829	277.46149	-318.10556	668.66113	281.61484	-256.90433	739.89343	264.49536	-243.36838	678.44983	267.64255	-296.94510	463.20773	280.10028	-281.37112	436.86658	393.24487	-361.10986	364.38062	268.29877	-370.00909	317.04587	267.45068	-309.75534	361.58701	258.06558	-310.37625	314.36597	255.24620	-347.82947	77.03057	252.48364	-324.12524	91.05196	343.58521	-404.78745	48.32958	312.90622	-220.30905	21.50308	210.54848	-186.37294	47.50165	258.19415	-205.95616	21.44043	317.33163	-350.70395	981.01825	490.38318	-182.12245	957.67792	552.94366	-310.99594	748.14764	633.95483	-314.15088	684.98462	630.25153	-246.84435	751.04156	637.34735	-236.44638	689.56403	635.66370	-283.92850	465.84476	619.82501	-285.07907	448.39801	508.21530	-361.88348	339.75534	645.60620	-356.04443	294.38470	647.32812	-300.46048	340.75418	648.33209	-302.92542	293.73245	652.25403	-336.41299	80.43706	648.20398	-314.06836	87.70468	559.08405	-392.16995	48.26652	594.76147	-190.12730	31.24653	586.37152	-166.60397	47.13258	635.66974	-209.15108	17.72709	690.77325
363	1.44800	-350.55081	978.40674	415.61749	-185.20856	962.40497	339.71179	-321.73566	730.58484	277.47571	-318.12805	668.65521	281.62848	-256.92117	739.87354	264.49747	-243.36496	678.44824	267.66357	-296.99445	463.20532	280.10657	-281.35812	436.89621	393.23907	-361.10107	364.41232	268.29407	-370.02124	317.05762	267.46954	-309.77026	361.59726	258.08563	-310.37552	314.40237	255.28535	-347.82596	77.04202	252.50311	-324.11584	91.07375	343.59314	-404.80774	48.35048	312.90054	-220.28670	21.53127	210.54984	-186.36545	47.52302	258.20758	-205.93816	21.48124	317.34406	-350.73218	981.03729	490.36691	-182.10098	957.71051	552.95691	-311.02408	748.15161	633.93494	-314.14474	685.03705	630.28650	-246.89217	751.07507	637.34448	-236.46011	689.60236	635.65887	-283.93384	465.86514	619.80841	-285.07401	448.40781	508.24426	-361.86240	339.82709	645.61371	-355.90952	294.50000	647.39740	-300.43347	340.80133	648.33203	-303.32782	293.70120	652.18170	-336.40979	80.45972	648.19196	-314.09537	87.70872	559.07977	-392.12491	48.29869	594.72961	-190.11893	31.24654	586.37158	-166.60213	47.15938	635.66473	-209.11028	17.76032	690.79999
364	1.45200	-350.56271	978.42755	415.60583	-185.22513	962.40625	339.70541	-321.67999	730.57837	277.41302	-318.15784	668.62250	281.62543	-256.93402	739.90924	264.48587	-243.36197	678.46442	267.63202	-296.96024	463.20438	280.09933	-281.34344	436.92957	393.21704	-361.08807	364.42419	268.26208	-370.02307	317.07306	267.48236	-309.76447	361.61203	258.06329	-310.38110	314.40106	255.25677	-347.84067	77.05058	252.49332	-324.11520	91.09796	343.58618	-404.80460	48.41456	312.88666	-220.28862	21.53073	210.54965	-186.36116	47.53158	258.19510	-205.90166	21.50985	317.32593	-350.77393	981.09790	490.38428	-182.13361	957.71600	552.95923	-311.02866	748.22394	633.92511	-314.15790	685.06360	630.26404	-246.87109	751.09100	637.31165	-236.47868	689.61346	635.65692	-283.92493	465.90433	619.81995	-285.08032	448.42447	508.22382	-361.87271	339.85602	645.59491	-355.80377	294.60220	647.47705	-300.44342	340.80536	648.32404	-302.91931	293.77380	652.23419	-336.40631	80.48953	648.18030	-314.08502	87.71783	559.08429	-392.13446	48.29321	594.70996	-190.10391	31.29057	586.37238	-166.59834	47.17187	635.65283	-209.12505	17.77541	690.80237
365	1.45600	-350.59305	978.48499	415.57397	-185.25140	962.40210	339.68991	-321.74353	730.58136	277.44452	-318.14026	668.64825	281.58939	-256.96088	739.89343	264.47833	-243.37457	678.47266	267.63876	-296.96158	463.22009	280.08615	-281.33401	436.93588	393.22571	-361.06122	364.43436	268.20770	-369.99902	317.07913	267.46207	-309.77844	361.61050	258.06113	-310.37741	314.39493	255.25018	-347.80447	77.04783	252.47028	-324.11359	91.09354	343.56421	-404.81317	48.39415	312.85614	-220.28160	21.52801	210.55128	-186.34581	47.53646	258.19028	-205.89532	21.50717	317.32062	-350.82330	981.10693	490.32172	-182.14783	957.71252	552.96857	-311.05746	748.23596	633.90167	-314.19351	685.08038	630.23920	-246.88704	751.13141	637.28711	-236.46396	689.62592	635.63397	-283.92456	465.91486	619.82312	-285.08398	448.41162	508.21524	-361.86893	339.87979	645.60291	-355.87741	294.58124	647.43628	-300.43436	340.82986	648.30267	-302.90247	293.78568	652.22314	-336.40533	80.52336	648.17487	-314.08243	87.71487	559.09808	-392.12534	48.32336	594.67780	-190.12819	31.26958	586.35730	-166.59669	47.17716	635.63702	-209.12915	17.78658	690.78119
